<svg xmlns="http://www.w3.org/2000/svg" version="1.1" xmlns:xlink="http://www.w3.org/1999/xlink" width="1000" height="1000"><style>
    #light-icon {
      display: inline;
    }
    #dark-icon {
      display: none;
    }

    @media (prefers-color-scheme: dark) {
      #light-icon {
        display: none;
      }
      #dark-icon {
        display: inline;
      }
    }
</style>
    <g id="light-icon">
        <svg width="1000" height="1000" viewBox="0 0 1145 1321" fill="none" xmlns="http://www.w3.org/2000/svg">
    <path d="M208.919 616.501V868.719L0.0319824 990.038V495.353L208.919 616.501Z" fill="#5B9364" fill-opacity="0.85"/>
    <path d="M208.918 868.72L428.58 996.375V1237.56L0.1698 990.286L208.918 868.72Z" fill="#5B9364"/>
    <path d="M1144.6 329.411V990.039L572.249 1320.35V657.768L1144.6 329.411Z" fill="#5B9364" fill-opacity="0.85"/>
    <path d="M1144.6 329.41L572.248 657.761L0.268188 329.41L572.387 0.324219L1144.6 329.41Z" fill="#5B9364"/>
</svg>
</g>
    <g id="dark-icon"><svg width="1000" height="1000" viewBox="0 0 1145 1321" fill="none" xmlns="http://www.w3.org/2000/svg">
    <path d="M208.919 616.501V868.719L0.0319824 990.038V495.353L208.919 616.501Z" fill="white" fill-opacity="0.85"/>
    <path d="M208.918 868.72L428.58 996.375V1237.56L0.1698 990.286L208.918 868.72Z" fill="white"/>
    <path d="M1144.6 329.411V990.039L572.249 1320.35V657.768L1144.6 329.411Z" fill="white" fill-opacity="0.85"/>
    <path d="M1144.6 329.41L572.248 657.761L0.268188 329.41L572.387 0.324219L1144.6 329.41Z" fill="white"/>
</svg>
    </g>
</svg>